<svg width="22" height="22" viewBox="0 0 22 22" fill="none" xmlns="http://www.w3.org/2000/svg">
<path d="M3.2348 4L17.9015 18.6667M14.6931 15.6929C13.4533 16.3608 12.0519 16.8332 10.5681 16.8332C7.33171 16.8332 4.48729 14.5855 2.85614 12.9639C2.42558 12.5359 2.21033 12.3219 2.0733 11.9018C1.97558 11.6022 1.97555 11.0644 2.0733 10.7648C2.21038 10.3447 2.42607 10.1302 2.85748 9.70136C3.67963 8.88419 4.80975 7.90829 6.14275 7.14119M17.4431 13.7473C17.7484 13.4788 18.028 13.2146 18.2789 12.9653L18.2816 12.9625C18.7112 12.5355 18.9266 12.3214 19.0634 11.9022C19.1611 11.6026 19.1609 11.0646 19.0632 10.765C18.9262 10.345 18.7107 10.1304 18.2804 9.70268C16.6493 8.08108 13.8046 5.83333 10.5681 5.83333C10.2588 5.83333 9.95297 5.85387 9.65147 5.89244M11.7808 12.7083C11.4576 12.9936 11.0331 13.1667 10.5681 13.1667C9.55562 13.1667 8.7348 12.3459 8.7348 11.3333C8.7348 10.8388 8.93062 10.3902 9.24894 10.0604" stroke="#323F49" stroke-width="1.6" stroke-linecap="round" stroke-linejoin="round"/>
</svg>
