<svg width="40" height="38" viewBox="0 0 40 38" fill="none" xmlns="http://www.w3.org/2000/svg">
<path d="M12.125 5.99996V15.9C12.125 16.9267 12.125 17.4397 12.3248 17.8319C12.5006 18.1769 12.7809 18.4579 13.1258 18.6337C13.5176 18.8333 14.0307 18.8333 15.0555 18.8333H25.6945C26.7193 18.8333 27.2317 18.8333 27.6234 18.6337C27.9684 18.4579 28.2496 18.1771 28.4254 17.8321C28.6252 17.4399 28.6252 16.9265 28.6252 15.8998L28.6252 8.93309C28.6252 7.90633 28.6252 7.39294 28.4254 7.00077C28.2496 6.65581 27.9686 6.37555 27.6236 6.19978C27.2315 5.99996 26.7184 5.99996 25.6917 5.99996H20.375M12.125 5.99996H20.375M12.125 5.99996C12.125 4.98744 12.9458 4.16663 13.9583 4.16663H17.3266C17.7751 4.16663 17.9998 4.16663 18.2108 4.21728C18.3979 4.26219 18.5764 4.33645 18.7404 4.43697C18.9254 4.55031 19.0842 4.70912 19.401 5.026L20.375 5.99996" stroke="#637D92" stroke-width="1.6" stroke-linecap="round" stroke-linejoin="round"/>
<path d="M1.755 35.5V28.05H2.555V31.4H6.555V28.05H7.355V35.5H6.555V32.15H2.555V35.5H1.755ZM9.00828 35.5V30.14H9.75828V35.5H9.00828ZM9.00828 29.15V28.05H9.75828V29.15H9.00828ZM13.1534 35.62C12.6401 35.62 12.1901 35.49 11.8034 35.23C11.4168 34.97 11.1368 34.6167 10.9634 34.17L11.5934 33.87C11.7468 34.1967 11.9601 34.4567 12.2334 34.65C12.5134 34.8433 12.8201 34.94 13.1534 34.94C13.4734 34.94 13.7434 34.8633 13.9634 34.71C14.1834 34.55 14.2934 34.3433 14.2934 34.09C14.2934 33.9033 14.2401 33.7567 14.1334 33.65C14.0268 33.5367 13.9034 33.45 13.7634 33.39C13.6234 33.33 13.5001 33.2867 13.3934 33.26L12.6234 33.04C12.1301 32.9 11.7734 32.7033 11.5534 32.45C11.3334 32.1967 11.2234 31.9033 11.2234 31.57C11.2234 31.2567 11.3034 30.9833 11.4634 30.75C11.6234 30.5167 11.8401 30.3367 12.1134 30.21C12.3868 30.0833 12.6901 30.02 13.0234 30.02C13.4768 30.02 13.8868 30.14 14.2534 30.38C14.6268 30.6133 14.8901 30.94 15.0434 31.36L14.4034 31.66C14.2701 31.36 14.0768 31.1267 13.8234 30.96C13.5768 30.7867 13.3001 30.7 12.9934 30.7C12.6934 30.7 12.4534 30.7767 12.2734 30.93C12.0934 31.0833 12.0034 31.2767 12.0034 31.51C12.0034 31.69 12.0501 31.8333 12.1434 31.94C12.2368 32.0467 12.3434 32.1267 12.4634 32.18C12.5901 32.2333 12.7001 32.2733 12.7934 32.3L13.6834 32.56C14.1168 32.6867 14.4534 32.8833 14.6934 33.15C14.9401 33.4167 15.0634 33.73 15.0634 34.09C15.0634 34.3833 14.9801 34.6467 14.8134 34.88C14.6534 35.1133 14.4301 35.2967 14.1434 35.43C13.8568 35.5567 13.5268 35.62 13.1534 35.62ZM18.8913 35.62C18.3847 35.62 17.9247 35.5 17.5113 35.26C17.098 35.0133 16.768 34.68 16.5213 34.26C16.2813 33.8333 16.1613 33.35 16.1613 32.81C16.1613 32.2767 16.2813 31.8 16.5213 31.38C16.7613 30.96 17.0847 30.63 17.4913 30.39C17.9047 30.1433 18.3713 30.02 18.8913 30.02C19.4113 30.02 19.8747 30.14 20.2813 30.38C20.6947 30.62 21.018 30.95 21.2513 31.37C21.4913 31.79 21.6113 32.27 21.6113 32.81C21.6113 33.3567 21.488 33.8433 21.2413 34.27C20.9947 34.69 20.6647 35.02 20.2513 35.26C19.8447 35.5 19.3913 35.62 18.8913 35.62ZM18.8913 34.87C19.2513 34.87 19.5747 34.78 19.8613 34.6C20.1547 34.42 20.3847 34.1733 20.5513 33.86C20.7247 33.5467 20.8113 33.1967 20.8113 32.81C20.8113 32.4233 20.7247 32.0767 20.5513 31.77C20.3847 31.4633 20.1547 31.22 19.8613 31.04C19.5747 30.86 19.2513 30.77 18.8913 30.77C18.5313 30.77 18.2047 30.86 17.9113 31.04C17.6247 31.22 17.3947 31.4633 17.2213 31.77C17.048 32.0767 16.9613 32.4233 16.9613 32.81C16.9613 33.1967 17.048 33.5467 17.2213 33.86C17.3947 34.1733 17.6247 34.42 17.9113 34.6C18.2047 34.78 18.5313 34.87 18.8913 34.87ZM25.6441 35.62C25.1841 35.62 24.7674 35.5167 24.3941 35.31C24.0274 35.0967 23.7507 34.7967 23.5641 34.41L23.6841 34.3V35.5H22.9341V27.93H23.6841V31.34L23.5641 31.13C23.7774 30.79 24.0607 30.52 24.4141 30.32C24.7741 30.12 25.1841 30.02 25.6441 30.02C26.1507 30.02 26.6007 30.1433 26.9941 30.39C27.3941 30.63 27.7074 30.96 27.9341 31.38C28.1674 31.8 28.2841 32.28 28.2841 32.82C28.2841 33.3533 28.1674 33.8333 27.9341 34.26C27.7074 34.68 27.3941 35.0133 26.9941 35.26C26.6007 35.5 26.1507 35.62 25.6441 35.62ZM25.6041 34.87C25.9641 34.87 26.2841 34.78 26.5641 34.6C26.8507 34.42 27.0741 34.1767 27.2341 33.87C27.4007 33.5567 27.4841 33.2067 27.4841 32.82C27.4841 32.4267 27.4007 32.0767 27.2341 31.77C27.0741 31.4633 26.8507 31.22 26.5641 31.04C26.2841 30.86 25.9641 30.77 25.6041 30.77C25.2441 30.77 24.9174 30.86 24.6241 31.04C24.3374 31.22 24.1074 31.4667 23.9341 31.78C23.7674 32.0867 23.6841 32.4333 23.6841 32.82C23.6841 33.2067 23.7674 33.5567 23.9341 33.87C24.1074 34.1767 24.3374 34.42 24.6241 34.6C24.9174 34.78 25.2441 34.87 25.6041 34.87ZM32.114 35.62C31.6073 35.62 31.1473 35.5 30.734 35.26C30.3207 35.0133 29.9907 34.68 29.744 34.26C29.504 33.8333 29.384 33.35 29.384 32.81C29.384 32.2767 29.504 31.8 29.744 31.38C29.984 30.96 30.3073 30.63 30.714 30.39C31.1273 30.1433 31.594 30.02 32.114 30.02C32.634 30.02 33.0973 30.14 33.504 30.38C33.9173 30.62 34.2407 30.95 34.474 31.37C34.714 31.79 34.834 32.27 34.834 32.81C34.834 33.3567 34.7107 33.8433 34.464 34.27C34.2173 34.69 33.8873 35.02 33.474 35.26C33.0673 35.5 32.614 35.62 32.114 35.62ZM32.114 34.87C32.474 34.87 32.7973 34.78 33.084 34.6C33.3773 34.42 33.6073 34.1733 33.774 33.86C33.9473 33.5467 34.034 33.1967 34.034 32.81C34.034 32.4233 33.9473 32.0767 33.774 31.77C33.6073 31.4633 33.3773 31.22 33.084 31.04C32.7973 30.86 32.474 30.77 32.114 30.77C31.754 30.77 31.4273 30.86 31.134 31.04C30.8473 31.22 30.6173 31.4633 30.444 31.77C30.2707 32.0767 30.184 32.4233 30.184 32.81C30.184 33.1967 30.2707 33.5467 30.444 33.86C30.6173 34.1733 30.8473 34.42 31.134 34.6C31.4273 34.78 31.754 34.87 32.114 34.87ZM38.1091 35.56C37.6291 35.56 37.2591 35.42 36.9991 35.14C36.7391 34.86 36.6091 34.46 36.6091 33.94V30.89H35.6191V30.14H35.8691C36.0957 30.14 36.2757 30.0667 36.4091 29.92C36.5424 29.7667 36.6091 29.5767 36.6091 29.35V28.9H37.3591V30.14H38.5391V30.89H37.3591V33.94C37.3591 34.12 37.3857 34.28 37.4391 34.42C37.4924 34.5533 37.5824 34.66 37.7091 34.74C37.8424 34.82 38.0191 34.86 38.2391 34.86C38.2924 34.86 38.3557 34.8567 38.4291 34.85C38.5024 34.8433 38.5657 34.8367 38.6191 34.83V35.5C38.5391 35.52 38.4491 35.5333 38.3491 35.54C38.2491 35.5533 38.1691 35.56 38.1091 35.56Z" fill="#637D92"/>
</svg>
