<svg width="32" height="40" viewBox="0 0 32 40" fill="none" xmlns="http://www.w3.org/2000/svg">
<path d="M14.9304 4.23522C15.1857 3.99386 15.5237 3.85938 15.875 3.85938C16.2263 3.85938 16.5643 3.99386 16.8196 4.23522L23.4801 10.5313C23.8926 10.9205 24.125 11.4636 24.125 12.0301V19.6888C24.125 20.2359 23.9077 20.7605 23.5209 21.1473C23.1341 21.534 22.6095 21.7513 22.0625 21.7513H19.3125C19.0415 21.7513 18.7732 21.698 18.5229 21.5942C18.2726 21.4905 18.0451 21.3384 17.8536 21.1468C17.6621 20.9551 17.5102 20.7276 17.4066 20.4772C17.303 20.2268 17.2498 19.9584 17.25 19.6875V16.25C17.25 16.0676 17.1776 15.8928 17.0486 15.7638C16.9197 15.6349 16.7448 15.5625 16.5625 15.5625H15.1875C15.0052 15.5625 14.8303 15.6349 14.7014 15.7638C14.5724 15.8928 14.5 16.0676 14.5 16.25V19.6875C14.5 20.2345 14.2827 20.7591 13.8959 21.1459C13.5091 21.5327 12.9845 21.75 12.4375 21.75H9.6875C9.14049 21.75 8.61589 21.5327 8.22909 21.1459C7.8423 20.7591 7.625 20.2345 7.625 19.6875V12.0287C7.625 11.4622 7.85875 10.9191 8.27125 10.53L14.9304 4.23522ZM15.875 5.23347L9.2145 11.531C9.14688 11.5951 9.093 11.6723 9.05613 11.7578C9.01926 11.8434 9.00016 11.9355 9 12.0287V19.6875C9 19.8698 9.07243 20.0447 9.20136 20.1736C9.3303 20.3025 9.50516 20.375 9.6875 20.375H12.4375C12.6198 20.375 12.7947 20.3025 12.9236 20.1736C13.0526 20.0447 13.125 19.8698 13.125 19.6875V16.25C13.125 15.703 13.3423 15.1784 13.7291 14.7916C14.1159 14.4048 14.6405 14.1875 15.1875 14.1875H16.5625C17.1095 14.1875 17.6341 14.4048 18.0209 14.7916C18.4077 15.1784 18.625 15.703 18.625 16.25V19.6875C18.625 19.8698 18.6974 20.0447 18.8264 20.1736C18.9553 20.3025 19.1302 20.375 19.3125 20.375H22.0625C22.2448 20.375 22.4197 20.3025 22.5486 20.1736C22.6776 20.0447 22.75 19.8698 22.75 19.6875V12.0287C22.75 11.9353 22.731 11.8429 22.6941 11.7571C22.6573 11.6713 22.6033 11.5939 22.5355 11.5296L15.875 5.23347Z" fill="#637D92"/>
<path d="M0.485 35.5L3.205 28.05H4.065L6.785 35.5H5.945L5.305 33.68H1.975L1.325 35.5H0.485ZM2.235 32.93H5.025L3.515 28.65H3.755L2.235 32.93ZM9.52844 35.62C9.0151 35.62 8.5651 35.49 8.17844 35.23C7.79177 34.97 7.51177 34.6167 7.33844 34.17L7.96844 33.87C8.12177 34.1967 8.3351 34.4567 8.60844 34.65C8.88844 34.8433 9.1951 34.94 9.52844 34.94C9.84844 34.94 10.1184 34.8633 10.3384 34.71C10.5584 34.55 10.6684 34.3433 10.6684 34.09C10.6684 33.9033 10.6151 33.7567 10.5084 33.65C10.4018 33.5367 10.2784 33.45 10.1384 33.39C9.99844 33.33 9.8751 33.2867 9.76844 33.26L8.99844 33.04C8.5051 32.9 8.14844 32.7033 7.92844 32.45C7.70844 32.1967 7.59844 31.9033 7.59844 31.57C7.59844 31.2567 7.67844 30.9833 7.83844 30.75C7.99844 30.5167 8.2151 30.3367 8.48844 30.21C8.76177 30.0833 9.0651 30.02 9.39844 30.02C9.85177 30.02 10.2618 30.14 10.6284 30.38C11.0018 30.6133 11.2651 30.94 11.4184 31.36L10.7784 31.66C10.6451 31.36 10.4518 31.1267 10.1984 30.96C9.95177 30.7867 9.6751 30.7 9.36844 30.7C9.06844 30.7 8.82844 30.7767 8.64844 30.93C8.46844 31.0833 8.37844 31.2767 8.37844 31.51C8.37844 31.69 8.4251 31.8333 8.51844 31.94C8.61177 32.0467 8.71844 32.1267 8.83844 32.18C8.9651 32.2333 9.0751 32.2733 9.16844 32.3L10.0584 32.56C10.4918 32.6867 10.8284 32.8833 11.0684 33.15C11.3151 33.4167 11.4384 33.73 11.4384 34.09C11.4384 34.3833 11.3551 34.6467 11.1884 34.88C11.0284 35.1133 10.8051 35.2967 10.5184 35.43C10.2318 35.5567 9.90177 35.62 9.52844 35.62ZM15.2663 35.62C14.7597 35.62 14.2997 35.5 13.8863 35.26C13.473 35.0133 13.143 34.68 12.8963 34.26C12.6563 33.8333 12.5363 33.35 12.5363 32.81C12.5363 32.2767 12.6563 31.8 12.8963 31.38C13.1363 30.96 13.4597 30.63 13.8663 30.39C14.2797 30.1433 14.7463 30.02 15.2663 30.02C15.7863 30.02 16.2497 30.14 16.6563 30.38C17.0697 30.62 17.393 30.95 17.6263 31.37C17.8663 31.79 17.9863 32.27 17.9863 32.81C17.9863 33.3567 17.863 33.8433 17.6163 34.27C17.3697 34.69 17.0397 35.02 16.6263 35.26C16.2197 35.5 15.7663 35.62 15.2663 35.62ZM15.2663 34.87C15.6263 34.87 15.9497 34.78 16.2363 34.6C16.5297 34.42 16.7597 34.1733 16.9263 33.86C17.0997 33.5467 17.1863 33.1967 17.1863 32.81C17.1863 32.4233 17.0997 32.0767 16.9263 31.77C16.7597 31.4633 16.5297 31.22 16.2363 31.04C15.9497 30.86 15.6263 30.77 15.2663 30.77C14.9063 30.77 14.5797 30.86 14.2863 31.04C13.9997 31.22 13.7697 31.4633 13.5963 31.77C13.423 32.0767 13.3363 32.4233 13.3363 32.81C13.3363 33.1967 13.423 33.5467 13.5963 33.86C13.7697 34.1733 13.9997 34.42 14.2863 34.6C14.5797 34.78 14.9063 34.87 15.2663 34.87ZM21.1691 35.62C20.6557 35.62 20.2057 35.49 19.8191 35.23C19.4324 34.97 19.1524 34.6167 18.9791 34.17L19.6091 33.87C19.7624 34.1967 19.9757 34.4567 20.2491 34.65C20.5291 34.8433 20.8357 34.94 21.1691 34.94C21.4891 34.94 21.7591 34.8633 21.9791 34.71C22.1991 34.55 22.3091 34.3433 22.3091 34.09C22.3091 33.9033 22.2557 33.7567 22.1491 33.65C22.0424 33.5367 21.9191 33.45 21.7791 33.39C21.6391 33.33 21.5157 33.2867 21.4091 33.26L20.6391 33.04C20.1457 32.9 19.7891 32.7033 19.5691 32.45C19.3491 32.1967 19.2391 31.9033 19.2391 31.57C19.2391 31.2567 19.3191 30.9833 19.4791 30.75C19.6391 30.5167 19.8557 30.3367 20.1291 30.21C20.4024 30.0833 20.7057 30.02 21.0391 30.02C21.4924 30.02 21.9024 30.14 22.2691 30.38C22.6424 30.6133 22.9057 30.94 23.0591 31.36L22.4191 31.66C22.2857 31.36 22.0924 31.1267 21.8391 30.96C21.5924 30.7867 21.3157 30.7 21.0091 30.7C20.7091 30.7 20.4691 30.7767 20.2891 30.93C20.1091 31.0833 20.0191 31.2767 20.0191 31.51C20.0191 31.69 20.0657 31.8333 20.1591 31.94C20.2524 32.0467 20.3591 32.1267 20.4791 32.18C20.6057 32.2333 20.7157 32.2733 20.8091 32.3L21.6991 32.56C22.1324 32.6867 22.4691 32.8833 22.7091 33.15C22.9557 33.4167 23.0791 33.73 23.0791 34.09C23.0791 34.3833 22.9957 34.6467 22.8291 34.88C22.6691 35.1133 22.4457 35.2967 22.1591 35.43C21.8724 35.5567 21.5424 35.62 21.1691 35.62ZM24.397 35.5V30.14H25.147V35.5H24.397ZM24.397 29.15V28.05H25.147V29.15H24.397ZM26.7921 37.7C26.6854 37.7 26.5754 37.69 26.4621 37.67C26.3554 37.6567 26.2488 37.63 26.1421 37.59V36.89C26.2088 36.8967 26.2921 36.9067 26.3921 36.92C26.4988 36.94 26.6054 36.95 26.7121 36.95C27.0388 36.95 27.2888 36.88 27.4621 36.74C27.6354 36.6067 27.8054 36.3467 27.9721 35.96L28.3121 35.16L28.2921 35.82L26.0221 30.14H26.8321L28.6921 34.83H28.4821L30.3321 30.14H31.1621L28.7121 36.18C28.6054 36.44 28.4688 36.6867 28.3021 36.92C28.1421 37.1533 27.9388 37.34 27.6921 37.48C27.4454 37.6267 27.1454 37.7 26.7921 37.7Z" fill="#637D92"/>
</svg>
