<svg width="37" height="38" viewBox="0 0 37 38" fill="none" xmlns="http://www.w3.org/2000/svg">
<g clip-path="url(#clip0_3082_1271)">
<path d="M17.7014 14.0713C18.6229 13.4578 19.3224 12.5642 19.6966 11.5224C20.0709 10.4806 20.0999 9.3461 19.7795 8.28656C19.4591 7.22701 18.8062 6.29871 17.9173 5.63893C17.0285 4.97915 15.9509 4.62292 14.844 4.62292C13.7371 4.62292 12.6595 4.97915 11.7707 5.63893C10.8819 6.29871 10.229 7.22701 9.90852 8.28656C9.58809 9.3461 9.61714 10.4806 9.99137 11.5224C10.3656 12.5642 11.0652 13.4578 11.9866 14.0713C10.3198 14.6856 8.89636 15.8224 7.92862 17.312C7.87775 17.3876 7.84243 17.4725 7.82468 17.5619C7.80694 17.6512 7.80714 17.7432 7.82527 17.8325C7.8434 17.9218 7.87909 18.0066 7.93028 18.082C7.98147 18.1574 8.04712 18.2218 8.12344 18.2716C8.19975 18.3214 8.2852 18.3555 8.37481 18.3719C8.46442 18.3884 8.55641 18.3869 8.64543 18.3675C8.73446 18.3481 8.81873 18.3112 8.89337 18.2589C8.968 18.2067 9.0315 18.1401 9.08018 18.0631C9.70442 17.103 10.5586 16.314 11.5652 15.7678C12.5717 15.2217 13.6988 14.9356 14.844 14.9356C15.9892 14.9356 17.1163 15.2217 18.1228 15.7678C19.1294 16.314 19.9836 17.103 20.6078 18.0631C20.7087 18.2129 20.8644 18.3171 21.0415 18.353C21.2185 18.389 21.4025 18.3538 21.5538 18.2551C21.7051 18.1564 21.8115 18.0022 21.85 17.8257C21.8884 17.6492 21.8559 17.4647 21.7594 17.312C20.7917 15.8224 19.3682 14.6856 17.7014 14.0713ZM11.0628 9.78127C11.0628 9.03341 11.2845 8.30234 11.7 7.68052C12.1155 7.05869 12.7061 6.57404 13.397 6.28785C14.0879 6.00165 14.8482 5.92677 15.5817 6.07267C16.3152 6.21857 16.9889 6.5787 17.5178 7.10752C18.0466 7.63634 18.4067 8.31009 18.5526 9.04358C18.6985 9.77707 18.6236 10.5374 18.3374 11.2283C18.0512 11.9192 17.5666 12.5098 16.9448 12.9253C16.3229 13.3407 15.5919 13.5625 14.844 13.5625C13.8415 13.5614 12.8804 13.1626 12.1715 12.4538C11.4626 11.7449 11.0639 10.7838 11.0628 9.78127ZM29.1217 18.2633C28.969 18.3629 28.7829 18.3977 28.6045 18.3602C28.4261 18.3226 28.2699 18.2158 28.1703 18.0631C27.5468 17.1024 26.6928 16.3131 25.686 15.7671C24.6792 15.2212 23.5518 14.936 22.4065 14.9375C22.2242 14.9375 22.0493 14.8651 21.9204 14.7362C21.7914 14.6072 21.719 14.4324 21.719 14.25C21.719 14.0677 21.7914 13.8928 21.9204 13.7639C22.0493 13.6349 22.2242 13.5625 22.4065 13.5625C22.9634 13.562 23.5132 13.4385 24.0168 13.2008C24.5204 12.9632 24.9653 12.6172 25.3196 12.1877C25.674 11.7581 25.9292 11.2556 26.0668 10.7161C26.2045 10.1765 26.2213 9.6132 26.116 9.06639C26.0107 8.51959 25.786 8.00278 25.4578 7.5529C25.1297 7.10303 24.7062 6.73118 24.2176 6.46394C23.7291 6.19669 23.1876 6.04065 22.6318 6.00695C22.0759 5.97325 21.5195 6.06273 21.0023 6.269C20.918 6.30546 20.8272 6.32464 20.7353 6.32542C20.6434 6.32619 20.5523 6.30855 20.4674 6.27352C20.3825 6.2385 20.3054 6.1868 20.2408 6.12149C20.1762 6.05618 20.1253 5.97858 20.0912 5.89327C20.057 5.80797 20.0404 5.71669 20.0421 5.62483C20.0439 5.53297 20.064 5.44239 20.1014 5.35845C20.1387 5.27451 20.1925 5.19891 20.2596 5.13611C20.3266 5.07331 20.4056 5.02459 20.4918 4.99283C21.6756 4.52073 22.9922 4.50374 24.1878 4.94514C25.3833 5.38654 26.373 6.25504 26.966 7.38311C27.559 8.51118 27.7132 9.81888 27.3989 11.0539C27.0846 12.289 26.324 13.3639 25.2639 14.0713C26.9307 14.6856 28.3542 15.8224 29.3219 17.312C29.4215 17.4647 29.4563 17.6507 29.4188 17.8291C29.3812 18.0075 29.2744 18.1637 29.1217 18.2633Z" fill="#637D92"/>
</g>
<path d="M1.505 35.5V28.05H2.205L5.005 32.11H4.615L7.405 28.05H8.105V35.5H7.305V29.13L7.565 29.23L4.825 33.2H4.785L2.055 29.23L2.305 29.13V35.5H1.505ZM9.75438 35.5V30.14H10.5044V35.5H9.75438ZM9.75438 29.15V28.05H10.5044V29.15H9.75438ZM11.0395 37.7C10.9929 37.7 10.9295 37.6967 10.8495 37.69C10.7629 37.6833 10.6929 37.6733 10.6395 37.66V36.97C10.7795 36.99 10.9195 37 11.0595 37C11.3329 37 11.5629 36.9167 11.7495 36.75C11.9429 36.5833 12.0395 36.3333 12.0395 36V30.14H12.7895V36C12.7895 36.3667 12.7095 36.6767 12.5495 36.93C12.3895 37.1833 12.1762 37.3733 11.9095 37.5C11.6495 37.6333 11.3595 37.7 11.0395 37.7ZM12.0395 29.15V28.05H12.7895V29.15H12.0395ZM16.8347 35.62C16.328 35.62 15.868 35.5 15.4547 35.26C15.0414 35.0133 14.7114 34.68 14.4647 34.26C14.2247 33.8333 14.1047 33.35 14.1047 32.81C14.1047 32.2767 14.2247 31.8 14.4647 31.38C14.7047 30.96 15.028 30.63 15.4347 30.39C15.848 30.1433 16.3147 30.02 16.8347 30.02C17.3547 30.02 17.818 30.14 18.2247 30.38C18.638 30.62 18.9614 30.95 19.1947 31.37C19.4347 31.79 19.5547 32.27 19.5547 32.81C19.5547 33.3567 19.4314 33.8433 19.1847 34.27C18.938 34.69 18.608 35.02 18.1947 35.26C17.788 35.5 17.3347 35.62 16.8347 35.62ZM16.8347 34.87C17.1947 34.87 17.518 34.78 17.8047 34.6C18.098 34.42 18.328 34.1733 18.4947 33.86C18.668 33.5467 18.7547 33.1967 18.7547 32.81C18.7547 32.4233 18.668 32.0767 18.4947 31.77C18.328 31.4633 18.098 31.22 17.8047 31.04C17.518 30.86 17.1947 30.77 16.8347 30.77C16.4747 30.77 16.148 30.86 15.8547 31.04C15.568 31.22 15.338 31.4633 15.1647 31.77C14.9914 32.0767 14.9047 32.4233 14.9047 32.81C14.9047 33.1967 14.9914 33.5467 15.1647 33.86C15.338 34.1733 15.568 34.42 15.8547 34.6C16.148 34.78 16.4747 34.87 16.8347 34.87ZM20.3274 35.5V34.85L23.5574 30.6L23.6974 30.89H20.4974V30.14H24.3574V30.79L21.1374 35.04L20.9974 34.75H24.3774V35.5H20.3274ZM25.3696 35.5V27.93H26.1196V35.5H25.3696ZM29.2048 35.62C28.8648 35.62 28.5614 35.5567 28.2948 35.43C28.0281 35.2967 27.8181 35.1167 27.6648 34.89C27.5114 34.6633 27.4348 34.4033 27.4348 34.11C27.4348 33.83 27.4948 33.5767 27.6148 33.35C27.7348 33.1167 27.9214 32.92 28.1748 32.76C28.4281 32.6 28.7514 32.4867 29.1448 32.42L31.2448 32.07V32.75L29.3248 33.07C28.9381 33.1367 28.6581 33.26 28.4848 33.44C28.3181 33.62 28.2348 33.8333 28.2348 34.08C28.2348 34.32 28.3281 34.5233 28.5148 34.69C28.7081 34.8567 28.9548 34.94 29.2548 34.94C29.6214 34.94 29.9414 34.8633 30.2148 34.71C30.4881 34.55 30.7014 34.3367 30.8548 34.07C31.0081 33.8033 31.0848 33.5067 31.0848 33.18V31.82C31.0848 31.5 30.9681 31.24 30.7348 31.04C30.5014 30.84 30.1981 30.74 29.8248 30.74C29.4981 30.74 29.2114 30.8233 28.9648 30.99C28.7181 31.15 28.5348 31.36 28.4148 31.62L27.7348 31.25C27.8348 31.0233 27.9914 30.8167 28.2048 30.63C28.4248 30.4433 28.6748 30.2967 28.9548 30.19C29.2348 30.0767 29.5248 30.02 29.8248 30.02C30.2181 30.02 30.5648 30.0967 30.8648 30.25C31.1714 30.4033 31.4081 30.6167 31.5748 30.89C31.7481 31.1567 31.8348 31.4667 31.8348 31.82V35.5H31.0848V34.43L31.1948 34.54C31.1014 34.74 30.9548 34.9233 30.7548 35.09C30.5614 35.25 30.3314 35.38 30.0648 35.48C29.8048 35.5733 29.5181 35.62 29.2048 35.62ZM33.3774 35.5V30.14H34.1274V31.02L34.0274 30.89C34.1541 30.6367 34.3441 30.4367 34.5974 30.29C34.8574 30.1433 35.1708 30.07 35.5374 30.07H35.8774V30.82H35.4074C35.0208 30.82 34.7108 30.94 34.4774 31.18C34.2441 31.42 34.1274 31.76 34.1274 32.2V35.5H33.3774Z" fill="#637D92"/>
<defs>
<clipPath id="clip0_3082_1271">
<rect width="22" height="22" fill="white" transform="translate(7.625 0.5)"/>
</clipPath>
</defs>
</svg>
