<svg width="40" height="38" viewBox="0 0 40 38" fill="none" xmlns="http://www.w3.org/2000/svg">
<path d="M27.7791 8.67935L27.4434 8.4926C27.3913 8.4636 27.3657 8.44905 27.3405 8.43397C27.0901 8.28401 26.8791 8.07683 26.7252 7.82896C26.7097 7.80402 26.6951 7.77786 26.6652 7.72617C26.6354 7.67454 26.6203 7.64838 26.6064 7.62248C26.4683 7.36461 26.3936 7.07722 26.3891 6.78472C26.3887 6.75532 26.3888 6.72527 26.3898 6.66554L26.3963 6.27572C26.4068 5.6519 26.4121 5.33902 26.3244 5.05823C26.2466 4.80882 26.1163 4.5791 25.9423 4.38415C25.7457 4.16378 25.4735 4.00656 24.9285 3.69253L24.4759 3.43169C23.9325 3.11853 23.6606 2.9619 23.3721 2.90219C23.1169 2.84936 22.8535 2.85181 22.5992 2.9089C22.3121 2.97334 22.0437 3.13405 21.5072 3.4553L21.5042 3.45675L21.1798 3.65096C21.1285 3.68167 21.1026 3.69715 21.0769 3.71144C20.8218 3.85326 20.537 3.93168 20.2453 3.94105C20.2159 3.94199 20.186 3.94199 20.1262 3.94199C20.0668 3.94199 20.0356 3.94199 20.0062 3.94105C19.7139 3.93164 19.4285 3.85279 19.1731 3.71038C19.1473 3.69603 19.1218 3.68043 19.0704 3.64958L18.744 3.45362C18.2039 3.12933 17.9334 2.96695 17.6448 2.90219C17.3894 2.84489 17.1251 2.84331 16.8689 2.89682C16.5797 2.95723 16.3078 3.11503 15.764 3.43061L15.7616 3.43169L15.3146 3.69113L15.3096 3.69416C14.7708 4.00691 14.5007 4.16366 14.3057 4.38313C14.1327 4.57788 14.0034 4.80724 13.9259 5.056C13.8384 5.33717 13.8431 5.65071 13.8537 6.27747L13.8602 6.66674C13.8612 6.72569 13.8629 6.75498 13.8625 6.78398C13.8581 7.07707 13.7825 7.36504 13.6439 7.62338C13.6302 7.64893 13.6155 7.67448 13.586 7.72551C13.5565 7.77658 13.5422 7.80197 13.5269 7.82662C13.3722 8.07581 13.1603 8.28421 12.9084 8.43441C12.8835 8.44927 12.8572 8.46356 12.8056 8.49215L12.4742 8.67582C11.9227 8.98141 11.6471 9.13434 11.4465 9.35197C11.2691 9.5445 11.135 9.77286 11.0532 10.0216C10.9607 10.3027 10.9608 10.618 10.9622 11.2484L10.9634 11.7637C10.9648 12.3899 10.9668 12.7028 11.0595 12.9821C11.1415 13.2291 11.2745 13.4561 11.451 13.6475C11.6504 13.8638 11.9233 14.0158 12.4706 14.3202L12.7991 14.503C12.855 14.5341 12.8831 14.5494 12.9101 14.5657C13.1597 14.716 13.37 14.9238 13.5233 15.1716C13.5399 15.1983 13.5558 15.2261 13.5876 15.2817C13.619 15.3365 13.6351 15.364 13.6496 15.3915C13.7841 15.646 13.856 15.9289 13.861 16.2167C13.8615 16.2478 13.861 16.2792 13.86 16.3425L13.8537 16.716C13.843 17.3449 13.8384 17.6597 13.9264 17.9417C14.0043 18.1911 14.1344 18.4208 14.3084 18.6158C14.5051 18.8361 14.7777 18.9933 15.3226 19.3073L15.7752 19.5681C16.3187 19.8812 16.5903 20.0377 16.8788 20.0974C17.134 20.1502 17.3976 20.1482 17.6519 20.0911C17.9394 20.0266 18.2087 19.8653 18.7467 19.5431L19.0711 19.3489C19.1224 19.3182 19.1484 19.3028 19.1741 19.2885C19.4292 19.1467 19.7136 19.0678 20.0053 19.0585C20.0347 19.0575 20.0646 19.0575 20.1245 19.0575C20.1844 19.0575 20.2143 19.0575 20.2437 19.0585C20.5361 19.0679 20.8223 19.147 21.0778 19.2894C21.1003 19.3019 21.1228 19.3155 21.1623 19.3392L21.5071 19.5462C22.0474 19.8706 22.3173 20.0325 22.6059 20.0972C22.8613 20.1545 23.1258 20.1568 23.382 20.1033C23.6711 20.0429 23.9436 19.8848 24.487 19.5694L24.9408 19.3061C25.48 18.9931 25.7503 18.8362 25.9454 18.6167C26.1184 18.4219 26.2479 18.1926 26.3253 17.9439C26.4122 17.6648 26.407 17.3536 26.3966 16.7359L26.3898 16.3331C26.3888 16.2741 26.3887 16.2448 26.3891 16.2158C26.3935 15.9227 26.4679 15.6345 26.6064 15.3762C26.6201 15.3507 26.635 15.3249 26.6644 15.2741C26.6939 15.223 26.7091 15.1975 26.7244 15.1729C26.8791 14.9237 27.0913 14.7151 27.3432 14.5649C27.3678 14.5502 27.3931 14.5362 27.4435 14.5083L27.4452 14.5075L27.7766 14.3238C28.3281 14.0182 28.6043 13.8651 28.8048 13.6475C28.9823 13.455 29.1162 13.2269 29.198 12.9782C29.2899 12.6987 29.2892 12.3853 29.2878 11.7622L29.2866 11.2359C29.2852 10.6096 29.2844 10.2968 29.1917 10.0175C29.1097 9.7705 28.9759 9.54348 28.7994 9.35211C28.6002 9.13602 28.3269 8.98398 27.7807 8.68013L27.7791 8.67935Z" stroke="#637D92" stroke-width="1.6" stroke-linecap="round" stroke-linejoin="round"/>
<path d="M16.4586 11.5C16.4586 13.525 18.1003 15.1666 20.1253 15.1666C22.1503 15.1666 23.792 13.525 23.792 11.5C23.792 9.47492 22.1503 7.8333 20.1253 7.8333C18.1003 7.8333 16.4586 9.47492 16.4586 11.5Z" stroke="#637D92" stroke-width="1.6" stroke-linecap="round" stroke-linejoin="round"/>
<path d="M3.015 35.62C2.54167 35.62 2.11167 35.53 1.725 35.35C1.33833 35.17 1.01167 34.93 0.745 34.63C0.478333 34.3233 0.288333 33.9867 0.175 33.62L0.895 33.35C1.06833 33.8567 1.33833 34.2433 1.705 34.51C2.07167 34.77 2.50833 34.9 3.015 34.9C3.335 34.9 3.615 34.85 3.855 34.75C4.10167 34.6433 4.29167 34.4967 4.425 34.31C4.55833 34.1233 4.625 33.9067 4.625 33.66C4.625 33.2933 4.525 33.01 4.325 32.81C4.125 32.61 3.83833 32.4567 3.465 32.35L2.125 31.95C1.59833 31.7967 1.19167 31.54 0.905 31.18C0.625 30.82 0.485 30.41 0.485 29.95C0.485 29.5567 0.581667 29.21 0.775 28.91C0.968333 28.6033 1.23167 28.3633 1.565 28.19C1.905 28.0167 2.28833 27.93 2.715 27.93C3.16167 27.93 3.56167 28.0133 3.915 28.18C4.275 28.34 4.57833 28.5533 4.825 28.82C5.07167 29.0867 5.24833 29.3833 5.355 29.71L4.655 29.99C4.495 29.55 4.245 29.2167 3.905 28.99C3.57167 28.7633 3.17833 28.65 2.725 28.65C2.43833 28.65 2.185 28.7 1.965 28.8C1.75167 28.9 1.585 29.0433 1.465 29.23C1.345 29.4167 1.285 29.6367 1.285 29.89C1.285 30.1967 1.38167 30.4733 1.575 30.72C1.76833 30.96 2.065 31.14 2.465 31.26L3.645 31.61C4.23167 31.7833 4.675 32.0333 4.975 32.36C5.275 32.6867 5.425 33.0967 5.425 33.59C5.425 33.99 5.32167 34.3433 5.115 34.65C4.915 34.95 4.63167 35.1867 4.265 35.36C3.905 35.5333 3.48833 35.62 3.015 35.62ZM9.36984 35.62C8.86318 35.62 8.40318 35.5 7.98984 35.26C7.57651 35.0133 7.24651 34.68 6.99984 34.26C6.75984 33.8333 6.63984 33.35 6.63984 32.81C6.63984 32.2767 6.75984 31.8 6.99984 31.38C7.23984 30.96 7.56318 30.63 7.96984 30.39C8.38318 30.1433 8.84984 30.02 9.36984 30.02C9.88984 30.02 10.3532 30.14 10.7598 30.38C11.1732 30.62 11.4965 30.95 11.7298 31.37C11.9698 31.79 12.0898 32.27 12.0898 32.81C12.0898 33.3567 11.9665 33.8433 11.7198 34.27C11.4732 34.69 11.1432 35.02 10.7298 35.26C10.3232 35.5 9.86984 35.62 9.36984 35.62ZM9.36984 34.87C9.72984 34.87 10.0532 34.78 10.3398 34.6C10.6332 34.42 10.8632 34.1733 11.0298 33.86C11.2032 33.5467 11.2898 33.1967 11.2898 32.81C11.2898 32.4233 11.2032 32.0767 11.0298 31.77C10.8632 31.4633 10.6332 31.22 10.3398 31.04C10.0532 30.86 9.72984 30.77 9.36984 30.77C9.00984 30.77 8.68318 30.86 8.38984 31.04C8.10318 31.22 7.87318 31.4633 7.69984 31.77C7.52651 32.0767 7.43984 32.4233 7.43984 32.81C7.43984 33.1967 7.52651 33.5467 7.69984 33.86C7.87318 34.1733 8.10318 34.42 8.38984 34.6C8.68318 34.78 9.00984 34.87 9.36984 34.87ZM12.8626 35.5V34.85L16.0926 30.6L16.2326 30.89H13.0326V30.14H16.8926V30.79L13.6726 35.04L13.5326 34.75H16.9126V35.5H12.8626ZM17.9048 35.5V27.93H18.6548V35.5H17.9048ZM21.7399 35.62C21.3999 35.62 21.0966 35.5567 20.8299 35.43C20.5633 35.2967 20.3533 35.1167 20.1999 34.89C20.0466 34.6633 19.9699 34.4033 19.9699 34.11C19.9699 33.83 20.0299 33.5767 20.1499 33.35C20.2699 33.1167 20.4566 32.92 20.7099 32.76C20.9633 32.6 21.2866 32.4867 21.6799 32.42L23.7799 32.07V32.75L21.8599 33.07C21.4733 33.1367 21.1933 33.26 21.0199 33.44C20.8533 33.62 20.7699 33.8333 20.7699 34.08C20.7699 34.32 20.8633 34.5233 21.0499 34.69C21.2433 34.8567 21.4899 34.94 21.7899 34.94C22.1566 34.94 22.4766 34.8633 22.7499 34.71C23.0233 34.55 23.2366 34.3367 23.3899 34.07C23.5433 33.8033 23.6199 33.5067 23.6199 33.18V31.82C23.6199 31.5 23.5033 31.24 23.2699 31.04C23.0366 30.84 22.7333 30.74 22.3599 30.74C22.0333 30.74 21.7466 30.8233 21.4999 30.99C21.2533 31.15 21.0699 31.36 20.9499 31.62L20.2699 31.25C20.3699 31.0233 20.5266 30.8167 20.7399 30.63C20.9599 30.4433 21.2099 30.2967 21.4899 30.19C21.7699 30.0767 22.0599 30.02 22.3599 30.02C22.7533 30.02 23.0999 30.0967 23.3999 30.25C23.7066 30.4033 23.9433 30.6167 24.1099 30.89C24.2833 31.1567 24.3699 31.4667 24.3699 31.82V35.5H23.6199V34.43L23.7299 34.54C23.6366 34.74 23.4899 34.9233 23.2899 35.09C23.0966 35.25 22.8666 35.38 22.5999 35.48C22.3399 35.5733 22.0533 35.62 21.7399 35.62ZM25.9126 35.5V30.14H26.6626V31.16L26.5426 31.01C26.6892 30.6967 26.9059 30.4533 27.1926 30.28C27.4859 30.1067 27.8059 30.02 28.1526 30.02C28.5659 30.02 28.9392 30.1367 29.2726 30.37C29.6059 30.6033 29.8426 30.9067 29.9826 31.28L29.7726 31.29C29.9059 30.8767 30.1359 30.5633 30.4626 30.35C30.7959 30.13 31.1626 30.02 31.5626 30.02C31.9226 30.02 32.2526 30.1067 32.5526 30.28C32.8592 30.4533 33.1026 30.6933 33.2826 31C33.4692 31.3 33.5626 31.64 33.5626 32.02V35.5H32.8126V32.31C32.8126 31.9833 32.7526 31.7067 32.6326 31.48C32.5192 31.2533 32.3626 31.08 32.1626 30.96C31.9626 30.8333 31.7326 30.77 31.4726 30.77C31.2192 30.77 30.9892 30.8333 30.7826 30.96C30.5759 31.08 30.4126 31.2567 30.2926 31.49C30.1726 31.7167 30.1126 31.99 30.1126 32.31V35.5H29.3626V32.31C29.3626 31.9833 29.3026 31.7067 29.1826 31.48C29.0692 31.2533 28.9126 31.08 28.7126 30.96C28.5126 30.8333 28.2826 30.77 28.0226 30.77C27.7626 30.77 27.5292 30.8333 27.3226 30.96C27.1226 31.08 26.9626 31.2567 26.8426 31.49C26.7226 31.7167 26.6626 31.99 26.6626 32.31V35.5H25.9126ZM36.5446 35.62C36.2046 35.62 35.9013 35.5567 35.6346 35.43C35.3679 35.2967 35.1579 35.1167 35.0046 34.89C34.8513 34.6633 34.7746 34.4033 34.7746 34.11C34.7746 33.83 34.8346 33.5767 34.9546 33.35C35.0746 33.1167 35.2613 32.92 35.5146 32.76C35.7679 32.6 36.0913 32.4867 36.4846 32.42L38.5846 32.07V32.75L36.6646 33.07C36.2779 33.1367 35.9979 33.26 35.8246 33.44C35.6579 33.62 35.5746 33.8333 35.5746 34.08C35.5746 34.32 35.6679 34.5233 35.8546 34.69C36.0479 34.8567 36.2946 34.94 36.5946 34.94C36.9613 34.94 37.2813 34.8633 37.5546 34.71C37.8279 34.55 38.0413 34.3367 38.1946 34.07C38.3479 33.8033 38.4246 33.5067 38.4246 33.18V31.82C38.4246 31.5 38.3079 31.24 38.0746 31.04C37.8413 30.84 37.5379 30.74 37.1646 30.74C36.8379 30.74 36.5513 30.8233 36.3046 30.99C36.0579 31.15 35.8746 31.36 35.7546 31.62L35.0746 31.25C35.1746 31.0233 35.3313 30.8167 35.5446 30.63C35.7646 30.4433 36.0146 30.2967 36.2946 30.19C36.5746 30.0767 36.8646 30.02 37.1646 30.02C37.5579 30.02 37.9046 30.0967 38.2046 30.25C38.5113 30.4033 38.7479 30.6167 38.9146 30.89C39.0879 31.1567 39.1746 31.4667 39.1746 31.82V35.5H38.4246V34.43L38.5346 34.54C38.4413 34.74 38.2946 34.9233 38.0946 35.09C37.9013 35.25 37.6713 35.38 37.4046 35.48C37.1446 35.5733 36.8579 35.62 36.5446 35.62Z" fill="#637D92"/>
</svg>
